<svg xmlns="http://www.w3.org/2000/svg" width="48.77" height="48.77" viewBox="0 0 48.77 48.77">
  <g id="Grupo_499" data-name="Grupo 499" transform="translate(0)">
    <path id="Caminho_62" data-name="Caminho 62" d="M24.385,0A24.385,24.385,0,1,1,0,24.385,24.385,24.385,0,0,1,24.385,0Z" transform="translate(0)" fill="#ff8e00"/>
    <path id="symbol" d="M144.082,99.629c.408-2.726-1.668-4.191-4.506-5.169l.921-3.693-2.248-.56-.9,3.6c-.591-.147-1.2-.286-1.8-.424l.9-3.619-2.246-.56-.921,3.691c-.489-.111-.969-.222-1.435-.337l0-.012-3.1-.774-.6,2.4s1.668.382,1.632.406a1.2,1.2,0,0,1,1.047,1.307l-1.049,4.207a1.864,1.864,0,0,1,.234.075l-.238-.059L128.315,106a.818.818,0,0,1-1.03.534c.022.033-1.634-.408-1.634-.408l-1.116,2.573,2.925.729c.544.136,1.077.279,1.6.414l-.93,3.735,2.245.56.921-3.7c.613.166,1.209.32,1.791.465l-.918,3.678,2.248.56.93-3.728c3.833.725,6.715.433,7.928-3.034.978-2.791-.049-4.4-2.065-5.451a3.585,3.585,0,0,0,2.87-3.3Zm-5.135,7.2c-.695,2.791-5.394,1.282-6.918.9l1.234-4.948C134.787,103.167,139.673,103.92,138.947,106.83Zm.7-7.242c-.634,2.539-4.545,1.249-5.814.933l1.119-4.488C136.216,96.35,140.3,96.94,139.642,99.589Z" transform="translate(-110.395 -78.244)" fill="#fff"/>
  </g>
</svg>
