<svg xmlns="http://www.w3.org/2000/svg" width="48.77" height="48.77" viewBox="0 0 48.77 48.77">
  <g id="Grupo_518" data-name="Grupo 518" transform="translate(-462.808 -491.646)">
    <path id="Caminho_765" data-name="Caminho 765" d="M24.385,0A24.385,24.385,0,1,1,0,24.385,24.385,24.385,0,0,1,24.385,0Z" transform="translate(462.808 491.646)" fill="#5c7cf2"/>
    <g id="_116-Ethereum" data-name="116-Ethereum" transform="translate(476.742 501.32)">
      <g id="Grupo_245" data-name="Grupo 245" transform="translate(0 0)">
        <path id="Caminho_67" data-name="Caminho 67" d="M256.16,280.442V288.5l9.891-14.043Z" transform="translate(-246.247 -257.793)" fill="#beccfb"/>
        <path id="Caminho_68" data-name="Caminho 68" d="M265.671,55.479,256.16,39.5V51.119Z" transform="translate(-246.247 -39.501)" fill="#beccfb"/>
        <path id="Caminho_69" data-name="Caminho 69" d="M256.16,203.291v9.915l9.434-5.585Z" transform="translate(-246.247 -191.677)" fill="#7c97f5"/>
        <path id="Caminho_70" data-name="Caminho 70" d="M122.078,55.479l9.51-15.978V51.119Z" transform="translate(-121.672 -39.501)" fill="#fff"/>
        <path id="Caminho_71" data-name="Caminho 71" d="M132.247,203.291v9.915l-9.459-5.585Z" transform="translate(-122.332 -191.677)" fill="#beccfb"/>
        <path id="Caminho_72" data-name="Caminho 72" d="M126.244,280.442V288.5l-9.89-14.043Z" transform="translate(-116.354 -257.793)" fill="#fff"/>
      </g>
    </g>
  </g>
</svg>
