<svg xmlns="http://www.w3.org/2000/svg" width="48.77" height="48.77" viewBox="0 0 48.77 48.77">
  <g id="Grupo_515" data-name="Grupo 515" transform="translate(-462.808 -909.674)">
    <path id="Caminho_767" data-name="Caminho 767" d="M24.385,0A24.385,24.385,0,1,1,0,24.385,24.385,24.385,0,0,1,24.385,0Z" transform="translate(462.808 909.674)" fill="#2775ca"/>
    <path id="Caminho_768" data-name="Caminho 768" d="M16.086,1748.666a16.086,16.086,0,1,0,16.086,16.086A16.047,16.047,0,0,0,16.086,1748.666Zm-3.016,27.211c0,.134,0,.2-.067.269a.408.408,0,0,1-.6.268,12.061,12.061,0,0,1,0-22.989.4.4,0,0,1,.268-.067.509.509,0,0,1,.4.536v.938a.673.673,0,0,1-.4.67,10.029,10.029,0,0,0,0,18.833.892.892,0,0,1,.4.6Zm4.088-3.418c-.067.335-.268.536-.536.536H15.616c-.335-.067-.536-.268-.536-.536v-1.608c-2.212-.336-3.284-1.542-3.552-3.217v-.068A.458.458,0,0,1,12,1767.1h1.139a.489.489,0,0,1,.469.4c.2,1.005.8,1.743,2.547,1.743,1.273,0,2.212-.737,2.212-1.81s-.6-1.475-2.48-1.809c-2.815-.335-4.155-1.207-4.155-3.418a3.418,3.418,0,0,1,3.284-3.285v-1.541c.067-.335.268-.536.536-.536h1.005c.335.067.536.269.536.536v1.608a3.35,3.35,0,0,1,3.016,2.748v.067a.458.458,0,0,1-.469.469H18.565a.5.5,0,0,1-.469-.335,1.983,1.983,0,0,0-2.212-1.408c-1.34,0-2.011.6-2.011,1.541s.4,1.475,2.413,1.743c2.815.335,4.222,1.14,4.222,3.485h0a3.672,3.672,0,0,1-3.351,3.553Zm2.614,4.021a.4.4,0,0,1-.268.067.509.509,0,0,1-.4-.536v-.938a.672.672,0,0,1,.4-.67,10.029,10.029,0,0,0,0-18.833.891.891,0,0,1-.4-.671v-.938c0-.134,0-.2.067-.268a.407.407,0,0,1,.6-.268h0a12.112,12.112,0,0,1,0,23.056Z" transform="translate(471.517 -830.922)" fill="#fff"/>
  </g>
</svg>
