<svg xmlns="http://www.w3.org/2000/svg" width="48.77" height="48.77" viewBox="0 0 48.77 48.77">
  <g id="Grupo_516" data-name="Grupo 516" transform="translate(-462.808 -765.106)">
    <path id="Caminho_66" data-name="Caminho 66" d="M24.7,19.233c0-1.5-4.071-2.745-9.481-3.033V13.816h6.755V8.855H3.5v4.961h6.755v2.4C4.943,16.52.97,17.755.97,19.233s3.973,2.713,9.285,3.021v8.561h4.962V22.265C20.627,21.978,24.7,20.729,24.7,19.233ZM12.834,20.707c-5.807,0-10.515-.9-10.515-2.008,0-.939,3.376-1.728,7.936-1.947v.565h0v2.317c.822.046,1.686.07,2.579.07.822,0,1.62-.021,2.383-.059v-2.9c4.659.206,8.132,1,8.132,1.956C23.349,19.808,18.641,20.707,12.834,20.707Z" transform="translate(479.917 772.729)" fill="#fff"/>
    <path id="Caminho_763" data-name="Caminho 763" d="M24.385,0A24.385,24.385,0,1,1,0,24.385,24.385,24.385,0,0,1,24.385,0Z" transform="translate(462.808 765.106)" fill="#00a377"/>
    <path id="Caminho_764" data-name="Caminho 764" d="M24.7,19.233c0-1.5-4.071-2.745-9.481-3.033V13.816h6.755V8.855H3.5v4.961h6.755v2.4C4.943,16.52.97,17.755.97,19.233s3.973,2.713,9.285,3.021v8.561h4.962V22.265C20.627,21.978,24.7,20.729,24.7,19.233ZM12.834,20.707c-5.807,0-10.515-.9-10.515-2.008,0-.939,3.376-1.728,7.936-1.947v.565h0v2.317c.822.046,1.686.07,2.579.07.822,0,1.62-.021,2.383-.059v-2.9c4.659.206,8.132,1,8.132,1.956C23.349,19.808,18.641,20.707,12.834,20.707Z" transform="translate(474.692 770.987)" fill="#fff"/>
  </g>
</svg>
